<svg id="Layer_1" version="1.1" viewBox="0 0 100 100" xml:space="preserve" xmlns="http://www.w3.org/2000/svg" enable-background="new 0 0 100 100"><path d="M76.6 58.4c-3.4 0-6.6 1-9.3 2.6-2.7-1.1-5.3-2-7.2-2.4-.3-.1-.5-.3-.5-.6 0-.2.2-.5.3-.6 4.3-2.8 11.5-10.2 11.5-28.2 0-5.8-2-11.6-5.4-16C63 9.5 57.6 5 48.3 5c-9.5 0-15 4.5-17.9 8.3-3.3 4.3-5.2 10.1-5.2 16 0 18 7.2 25.4 11.4 28.1.1.1.3.6.4.9 0 .1-.2.3-.5.3-4.2.9-11.9 4.1-18.3 8.3-8.5 5.5-13 11.5-13 17.5C5.2 93.2 21.6 95 48.1 95c6.9 0 15.7-.1 23.2-.8 1.7.5 3.4.8 5.2.8 10.1 0 18.3-8.2 18.3-18.3.1-10.1-8.1-18.3-18.2-18.3zM48.1 90c-8.5 0-19.2-.2-27.2-1.3-7.9-1.2-10.7-3-10.7-4.3 0-4.1 3.8-8.9 10.7-13.4 5.9-3.8 12.9-6.7 16.7-7.6 2.8-.6 4.7-3.1 4.4-5.8-.2-1.4-1-3.4-2.6-4.4-3.4-2.2-9.2-8.3-9.2-24 0-6.7 3.8-19.3 18.1-19.3 13.3 0 18.1 11.5 18.1 19.3 0 15.6-5.8 21.7-9.2 24-1.5 1-2.6 2.9-2.6 4.8 0 2.6 1.8 4.9 4.4 5.5 1.1.2 2.4.6 3.9 1.2-2.8 3.2-4.6 7.4-4.6 12.1 0 5.1 2.1 9.7 5.5 13-5.5.2-11 .2-15.7.2zm28.5 0c-7.3 0-13.3-6-13.3-13.3 0-7.3 6-13.3 13.3-13.3 7.3 0 13.3 6 13.3 13.3 0 7.3-6 13.3-13.3 13.3z" fill="#f70000" class="fill-000000"></path><path d="M82.7 70.6c-1-1-2.6-1-3.5 0L76.7 73l-2.4-2.4c-1-1-2.6-1-3.5 0-1 1-1 2.6 0 3.5l2.4 2.4-2.4 2.5c-1 1-1 2.6 0 3.5.5.5 1.1.7 1.8.7.6 0 1.3-.2 1.8-.7l2.4-2.4 2.4 2.4c.5.5 1.1.7 1.8.7s1.3-.2 1.8-.7c1-1 1-2.6 0-3.5l-2.4-2.4 2.4-2.4c.9-1.1.9-2.6-.1-3.6z" fill="#f70000" class="fill-000000"></path></svg>