<?xml version="1.0" ?><svg fill="none" height="100" viewBox="0 0 100 100" width="100" xmlns="http://www.w3.org/2000/svg"><path clip-rule="evenodd" d="M32.4219 16.6667C18.9041 16.6667 8.33331 28.4159 8.33331 42.3165C8.33331 49.5464 9.49031 55.4999 13.8034 61.7644C17.9187 67.7415 24.7621 73.7736 35.3806 81.7314L50 91.6667L64.6182 81.7324C75.2374 73.774 82.081 67.7417 86.1965 61.7644C90.5097 55.4999 91.6666 49.5464 91.6666 42.3165C91.6666 28.4159 81.0959 16.6667 67.5781 16.6667C60.7956 16.6667 54.9241 19.43 50 24.4301C45.0758 19.43 39.2044 16.6667 32.4219 16.6667ZM32.4219 25C24.0646 25 16.6666 32.4396 16.6666 42.3165C16.6666 44.6039 16.7961 46.6145 17.1188 48.4689C17.6594 51.575 18.7422 54.2427 20.6672 57.0386C23.9388 61.7903 29.7858 67.1249 40.3815 75.0655L50 82.2891L59.6185 75.0655C70.2141 67.1249 76.0611 61.7903 79.3327 57.0386C82.407 52.5735 83.3333 48.4353 83.3333 42.3165C83.3333 32.4396 75.9354 25 67.5781 25C62.4296 25 57.7088 27.4428 53.3472 33.3263C52.5613 34.3864 51.3196 35.0116 50 35.0116C48.6803 35.0116 47.4387 34.3864 46.6528 33.3263C42.2912 27.4428 37.5704 25 32.4219 25Z" fill="black" fill-rule="evenodd"/></svg>