<?xml version="1.0" ?><svg height="100" id="svg2" version="1.1" width="100" xmlns="http://www.w3.org/2000/svg" xmlns:cc="http://creativecommons.org/ns#" xmlns:dc="http://purl.org/dc/elements/1.1/" xmlns:inkscape="http://www.inkscape.org/namespaces/inkscape" xmlns:rdf="http://www.w3.org/1999/02/22-rdf-syntax-ns#" xmlns:sodipodi="http://sodipodi.sourceforge.net/DTD/sodipodi-0.dtd" xmlns:svg="http://www.w3.org/2000/svg"><defs id="defs4"/><g id="layer1" transform="translate(0,-952.36218)"><path d="M 50 7 C 36.138146 7 25 18.60374 25 31.3125 C 25 34.552429 25.56255 40.334008 29.3125 45.875 L 17.21875 49.09375 C 16.205054 49.36435 15.364344 50.20505 15.09375 51.21875 L 5.09375 89.21875 C 5.02655 89.47435 5 89.735 5 90 C 5 90.7655 5.30814 91.54425 5.84375 92.09375 C 6.56378 92.83225 7.6838 93.14475 8.6875 92.90625 L 29 88 L 48.96875 92.8125 C 49.35846 92.907 49.64297 93 50 93 C 50.357031 93 50.641537 92.9065 51.03125 92.8125 L 71 88 L 91.3125 92.90625 C 92.3162 93.14475 93.436223 92.83255 94.15625 92.09375 C 94.691861 91.54415 95 90.7655 95 90 C 95 89.7351 94.97349 89.47435 94.90625 89.21875 L 84.90625 51.21875 C 84.635656 50.20505 83.794946 49.36435 82.78125 49.09375 L 70.6875 45.875 C 74.43745 40.334008 75 34.552429 75 31.3125 C 75 18.60374 63.861854 7 50 7 z M 50 13 C 60.432286 13 69 22.21914 69 31.3125 C 69 35.45079 68.602887 42.81337 59.40625 48.5 A 3.0003 3.0003 0 0 0 58.40625 49.53125 L 50 64 L 41.59375 49.53125 A 3.0003 3.0003 0 0 0 40.59375 48.5 C 31.397113 42.81339 31 35.45079 31 31.3125 C 31 22.21914 39.567714 13 50 13 z M 50 18 C 42.3059 18 36.03125 24.30221 36.03125 32 C 36.03125 39.69773 42.305862 46 50 46 C 57.694138 46 63.96875 39.69773 63.96875 32 C 63.96875 24.30221 57.6941 18 50 18 z M 50 24 C 54.457224 24 57.96875 27.53095 57.96875 32 C 57.96875 36.46893 54.457166 40 50 40 C 45.542834 40 42.03125 36.46893 42.03125 32 C 42.03125 27.53095 45.542776 24 50 24 z M 29.65625 51.96875 L 26.25 82.5625 L 12.1875 85.90625 L 20.46875 54.4375 L 29.65625 51.96875 z M 70.34375 51.96875 L 79.53125 54.4375 L 87.8125 85.90625 L 73.75 82.5625 L 70.34375 51.96875 z M 35.65625 52.3125 C 36.003534 52.564481 36.348771 52.817961 36.71875 53.0625 L 47 70.8125 L 47 86.1875 L 32.25 82.6875 L 35.65625 52.3125 z M 64.34375 52.3125 L 67.75 82.6875 L 53 86.1875 L 53 70.8125 L 63.28125 53.0625 C 63.651229 52.81796 63.996466 52.564482 64.34375 52.3125 z " id="rect3002" style="font-size:medium;font-style:normal;font-variant:normal;font-weight:normal;font-stretch:normal;text-indent:0;text-align:start;text-decoration:none;line-height:normal;letter-spacing:normal;word-spacing:normal;text-transform:none;direction:ltr;block-progression:tb;writing-mode:lr-tb;text-anchor:start;baseline-shift:baseline;opacity:1;color:#000000;fill:#000000;fill-opacity:1;fill-rule:nonzero;stroke:none;stroke-width:6;marker:none;visibility:visible;display:inline;overflow:visible;enable-background:accumulate;font-family:Sans;-inkscape-font-specification:Sans" transform="translate(0,952.36218)"/></g></svg>