<svg viewBox="0 0 32 32" xmlns="http://www.w3.org/2000/svg"><path d="M2.5 8.5v15A3.5 3.5 0 0 0 6 27h1a1.5 1.5 0 0 0 0-3H6a.5.5 0 0 1-.5-.5v-15A.5.5 0 0 1 6 8h10.62l-.68.68a1.52 1.52 0 0 0-.44 1.06 1.5 1.5 0 0 0 .44 1.06 1.53 1.53 0 0 0 2.12 0l3.24-3.24a1.49 1.49 0 0 0 0-2.12L18.06 2.2a1.5 1.5 0 0 0-2.56 1.06 1.52 1.52 0 0 0 .44 1.06l.68.68H6a3.5 3.5 0 0 0-3.5 3.5ZM26 24H15.38l.68-.68a1.52 1.52 0 0 0 .44-1.06 1.5 1.5 0 0 0-2.56-1.06l-3.24 3.24a1.49 1.49 0 0 0 0 2.12l3.24 3.24a1.5 1.5 0 0 0 2.12 0 1.5 1.5 0 0 0 .44-1.06 1.52 1.52 0 0 0-.44-1.06l-.68-.68H26a3.5 3.5 0 0 0 3.5-3.5v-15A3.5 3.5 0 0 0 26 5h-1a1.5 1.5 0 0 0 0 3h1a.5.5 0 0 1 .5.5v15a.5.5 0 0 1-.5.5Z" fill="#f00038" class="fill-231f20"></path></svg>