<svg viewBox="0 0 40 40" xml:space="preserve" xmlns="http://www.w3.org/2000/svg" enable-background="new 0 0 40 40"><path d="M3.562 26.727h15.283v10.221H3.562zM16.239 26.434V21.15c0-2.77-2.266-5.034-5.036-5.034-2.77 0-5.034 2.268-5.034 5.034v1.234" fill-rule="evenodd" clip-rule="evenodd" fill="none" stroke="#88d47b" stroke-width="2.2" stroke-miterlimit="22.9256" class="stroke-000000"></path><path d="M11.204 33.477v-3.281" fill-rule="evenodd" clip-rule="evenodd" fill="none" stroke="#88d47b" stroke-width="2.2" stroke-linecap="round" stroke-linejoin="round" stroke-miterlimit="22.9256" class="stroke-000000"></path><path d="M26.641 16.987c4.923 1.31 8.632 5.235 9.869 9.992.291 1.12.07 2.209-.637 3.124a3.501 3.501 0 0 1-2.855 1.405H22.352" fill-rule="evenodd" clip-rule="evenodd" fill="none" stroke="#88d47b" stroke-width="2.2" stroke-miterlimit="22.9256" class="stroke-000000"></path><path d="M23.068 17.608c3.973 0 7.213-3.248 7.213-7.229 0-3.982-3.24-7.231-7.213-7.231-3.972 0-7.213 3.249-7.213 7.231 0 3.981 3.241 7.229 7.213 7.229z" fill-rule="evenodd" clip-rule="evenodd" fill="none" stroke="#88d47b" stroke-width="2.2" stroke-linecap="round" stroke-linejoin="round" stroke-miterlimit="22.9256" class="stroke-000000"></path></svg>